# xmcd
#
# Track frame offsets:
#   150
#   10752
#   26871
#   37747
#   51509
#   63956
#   81327
#   91259
#   103393
#   113569
#   124800
#   140697
#   152104
#   164818
#   184716
#   195278
#   208429
#   242216
#   260504
#   277060
#   287462
#   300611
#   312018
#
# Disc length: 4292 seconds
#
# Revision: 0
# Processed by: cddbd v1.5.1PL0 Copyright (c) Steve Scherf et al.
# Submitted via: Media_Universe 3.0
#
DISCID=5010c217
DTITLE=John Lee Hooker - Collection CD1
DYEAR=1900
DGENRE=Blues
TTITLE0=01 - Track 01
TTITLE1=02 - Track 02
TTITLE2=03 - Track 03
TTITLE3=04 - Track 04
TTITLE4=05 - Track 05
TTITLE5=06 - Track 06
TTITLE6=07 - Track 07
TTITLE7=08 - Track 08
TTITLE8=09 - Track 09
TTITLE9=10 - Track 10
TTITLE10=11 - Track 11
TTITLE11=12 - Track 12
TTITLE12=13 - Track 13
TTITLE13=14 - Track 14
TTITLE14=15 - Track 15
TTITLE15=16 - Track 16
TTITLE16=17 - Track 17
TTITLE17=01 - Track 01
TTITLE18=02 - Track 02
TTITLE19=03 - Track 03
TTITLE20=04 - Track 04
TTITLE21=05 - Track 05
TTITLE22=06 - Track 06
EXTD=
EXTT0=
EXTT1=
EXTT2=
EXTT3=
EXTT4=
EXTT5=
EXTT6=
EXTT7=
EXTT8=
EXTT9=
EXTT10=
EXTT11=
EXTT12=
EXTT13=
EXTT14=
EXTT15=
EXTT16=
EXTT17=
EXTT18=
EXTT19=
EXTT20=
EXTT21=
EXTT22=
PLAYORDER=
